<svg width="69" height="90" viewBox="0 0 69 90" fill="none" xmlns="http://www.w3.org/2000/svg">
<path d="M66.7963 30.6841C66.3047 31.0891 57.6257 36.2826 57.6257 47.8308C57.6257 61.1881 68.6694 65.9136 69 66.0306C68.9491 66.3186 67.2456 72.5022 63.1773 78.8029C59.5497 84.3474 55.7611 89.883 49.9977 89.883C44.2342 89.883 42.751 86.3276 36.0977 86.3276C29.6138 86.3276 27.3084 90 22.0366 90C16.7648 90 13.0864 84.8695 8.85702 78.5689C3.95811 71.1701 0 59.676 0 48.7669C0 31.2691 10.7132 21.9892 21.2568 21.9892C26.8592 21.9892 31.5293 25.8956 35.0467 25.8956C38.3945 25.8956 43.6155 21.7552 49.9892 21.7552C52.4047 21.7552 61.0838 21.9892 66.7963 30.6841ZM46.9634 14.3474C49.5993 11.0261 51.464 6.41764 51.464 1.80918C51.464 1.17012 51.4131 0.522052 51.3029 0C47.0142 0.171017 41.9119 3.0333 38.8353 6.82268C36.4197 9.73897 34.1652 14.3474 34.1652 19.0189C34.1652 19.721 34.2754 20.423 34.3263 20.6481C34.5975 20.7021 35.0382 20.7651 35.4789 20.7651C39.3269 20.7651 44.1664 18.0288 46.9634 14.3474Z" fill="black"/>
</svg>
