<svg width="32" height="36" viewBox="0 0 32 36" fill="none" xmlns="http://www.w3.org/2000/svg">
<path d="M28.4719 12.6304C28.2874 12.7715 25.0289 14.5811 25.0289 18.6049C25.0289 23.2591 29.1752 24.9056 29.2993 24.9464C29.2802 25.0468 28.6406 27.2014 27.1132 29.3967C25.7512 31.3286 24.3288 33.2574 22.165 33.2574C20.0012 33.2574 19.4443 32.0186 16.9464 32.0186C14.512 32.0186 13.6465 33.2982 11.6673 33.2982C9.68799 33.2982 8.30696 31.5106 6.71909 29.3152C4.87984 26.7372 3.3938 22.7322 3.3938 18.9311C3.3938 12.8343 7.41597 9.60079 11.3745 9.60079C13.4779 9.60079 15.2312 10.9619 16.5518 10.9619C17.8087 10.9619 19.7689 9.51925 22.1618 9.51925C23.0687 9.51925 26.3272 9.60079 28.4719 12.6304ZM21.0258 6.93813C22.0154 5.78086 22.7155 4.1751 22.7155 2.56935C22.7155 2.34668 22.6964 2.12087 22.655 1.93896C21.0449 1.99855 19.1293 2.99588 17.9742 4.31623C17.0673 5.33237 16.2208 6.93813 16.2208 8.56584C16.2208 8.81046 16.2622 9.05509 16.2813 9.13349C16.3831 9.15231 16.5486 9.17427 16.7141 9.17427C18.1587 9.17427 19.9757 8.22085 21.0258 6.93813Z" fill="black"/>
</svg>
